<svg width="145" height="53" viewBox="0 0 145 53" fill="none" xmlns="http://www.w3.org/2000/svg">
<path d="M17.1629 7.28656C17.1629 7.28656 18.8909 8.68542 19.8989 9.63171C19.8371 9.85799 19.5903 9.96085 19.3023 9.96085H0.952571L0.788 9.38485H15.6406L17.1629 7.28656ZM7.96743 6.36085C14.2211 6.13456 11.732 11.0306 9.09886 9.24085C8.996 8.21228 8.44057 7.12199 7.844 6.46371L7.96743 6.36085ZM14.7766 16.5849L16.4223 15.1243L18.9526 17.5311C18.7674 17.7163 18.5617 17.778 18.0886 17.7986C15.8874 18.4157 12.2463 18.9506 9.83943 19.1769L9.73657 19.0329C11.444 18.4157 13.8303 17.346 15.0234 16.5849H14.7766ZM12.3903 18.3951C12.3491 18.7037 12.1434 18.8683 11.732 18.93V22.6946C11.732 24.69 11.2177 25.7186 7.78229 25.986C7.7 25.0603 7.57657 24.4226 7.16514 23.97C6.77429 23.5586 6.32171 23.25 5.04629 23.0237V22.7769C5.04629 22.7769 7.72057 22.9414 8.19371 22.9414C8.46114 22.9414 8.564 22.8591 8.564 22.6123V18.1071L12.3903 18.3951ZM13.1103 11.4009L14.4063 9.96085L17.1834 12.018C17.06 12.1826 16.8131 12.3677 16.3811 12.4706V15.1449C16.3606 15.2889 14.7971 15.7414 13.8509 15.7414H13.316V11.4009H13.1103ZM7.16514 15.2889C7.16514 15.5357 5.80743 16.1734 4.59371 16.1734H4.18229V10.2283L7.32971 11.4009H14.4474V11.9769H7.16514V15.2889ZM14.7354 14.322V14.898H5.84857V14.322H14.7354ZM16.1343 16.5849V17.1609H2.516L2.33086 16.5849H16.1343ZM17.3686 18.2717C17.3686 18.2717 19.0966 19.6294 20.1251 20.5346C20.084 20.7609 19.8371 20.8637 19.5286 20.8637H0.664571L0.5 20.2877H15.8463L17.3686 18.2717Z" fill="#BF9D7D"/>
<path d="M61.4531 10.8043C61.3091 11.0306 60.8977 11.1951 60.2394 10.8866L60.8771 10.7837C59.828 12.2854 57.5034 14.61 55.6726 15.7414L55.652 15.4946H56.7217C56.6394 16.7083 56.2691 17.3871 55.796 17.5929L54.7469 15.2066C54.7469 15.2066 55.1789 15.0831 55.364 14.9597C56.5777 13.9106 58.244 10.8249 58.7377 9.15856L61.4531 10.8043ZM60.3011 7.61571C60.1983 7.86256 59.828 8.06828 59.1286 7.82142L59.8074 7.71856C58.8406 8.91171 57.0509 10.5369 55.6726 11.2568V11.0306H56.7834C56.7011 12.2649 56.3309 12.9437 55.8577 13.1494L54.788 10.722C54.788 10.722 55.1377 10.6397 55.3229 10.5163C56.0634 9.81685 57.0097 7.49228 57.236 6.29914L60.3011 7.61571ZM48.5343 10.8043C48.3903 11.0511 47.9789 11.1951 47.3206 10.9071L47.9583 10.8043C46.868 12.306 44.4406 14.6306 42.548 15.762L42.5274 15.5151H43.5766C43.4943 16.7289 43.124 17.4077 42.6509 17.6134L41.6017 15.2271C41.6017 15.2271 42.0543 15.1037 42.2394 14.9803C43.5149 13.9311 45.3046 10.8454 45.8394 9.15856L48.5343 10.8043ZM47.1766 7.63628C47.0737 7.88314 46.7034 8.08885 45.9834 7.84199L46.6623 7.73914C45.716 8.93228 43.9469 10.5369 42.6097 11.298L42.5891 11.0511H43.6794C43.5971 12.2649 43.2269 12.9231 42.7743 13.1494L41.7251 10.7631C41.7251 10.7631 42.0749 10.6603 42.26 10.5369C43.0006 9.83742 43.9263 7.53342 44.1526 6.34028L47.1766 7.63628ZM50.3857 21.6043C50.2211 21.8511 49.9537 21.9334 49.4189 21.8511C47.2383 23.7026 43.9263 24.6489 41.4989 24.9163L41.4166 24.7106C43.3297 23.6409 45.572 21.6249 47.0943 19.4031L50.3857 21.6043ZM53.6566 20.5757C62.3994 19.4649 61.8851 26.0066 58.5731 24.7723C57.4829 23.4557 55.5286 21.7689 53.5743 20.7609L53.6566 20.5757ZM55.2817 15.1449C56.0634 15.1243 57.8943 15.0214 59.684 14.8774L59.7046 15.1243C59.0051 15.5563 57.4417 16.4614 55.8783 17.2637L55.2817 15.1449ZM55.1377 10.8043C55.9194 10.7837 57.7091 10.6809 59.4166 10.5574L59.4371 10.8043C58.82 11.2363 57.3594 12.1208 55.8783 12.9231L55.1377 10.8043ZM58.9023 13.026C62.9549 15.2271 60.692 18.3746 59.1697 16.6877C59.252 15.4946 58.9846 14.0957 58.6554 13.1083L58.9023 13.026ZM42.0954 15.2066C42.9389 15.186 44.9343 15.0626 46.9091 14.9186L46.9297 15.1654C46.1274 15.618 44.4406 16.5231 42.692 17.3254L42.0954 15.2066ZM42.0954 10.8249C42.8771 10.8043 44.6669 10.7014 46.3743 10.578L46.3949 10.8249C45.7777 11.2569 44.3171 12.1414 42.836 12.9437L42.0954 10.8249ZM53.9034 17.2843C53.8623 17.5517 53.7183 17.778 53.1423 17.8603V25.2866C53.1423 25.4923 51.764 25.986 50.5091 25.986H49.9743V16.9551L53.9034 17.2843ZM58.388 16.9346C58.388 16.9346 60.116 18.2306 61.1651 19.1151C61.1034 19.3414 60.8771 19.4443 60.5686 19.4443H41.8897L41.7251 18.8683H56.8657L58.388 16.9346ZM45.7366 13.0671C49.6863 15.2066 47.4851 18.3746 46.004 16.7289C46.1686 15.5357 45.8806 14.1163 45.4897 13.1494L45.7366 13.0671ZM53.4303 6.66942C53.3686 7.01914 53.1217 7.20428 52.6691 7.24542C52.2166 7.88314 51.3937 8.80885 50.9 9.40542H50.3446C50.3857 8.60314 50.3857 7.22485 50.3651 6.29914L53.4303 6.66942ZM51.9491 9.09685L52.9983 7.98599L55.1377 9.61114C55.0349 9.73456 54.8291 9.85799 54.5206 9.94028V16.0911C54.5 16.2351 53.3274 16.7083 52.5251 16.7083H52.1137V9.09685H51.9491ZM50.6737 16.3791C50.6737 16.6054 49.6863 17.0991 48.7194 17.0991H48.3903V8.15056L50.756 9.09685H53.5331V9.67285H50.6737V16.3791ZM53.348 15.1449V15.7209H49.3777V15.1449H53.348ZM53.348 12.0797V12.6557H49.3777V12.0797H53.348Z" fill="#BF9D7D"/>
<path d="M94.7377 12.1003H92.1663V8.29456H94.7377V12.1003ZM98.0703 8.29456V12.1003H95.54V8.29456H98.0703ZM96.2806 19.1151C96.2806 19.1151 97.5354 20.1437 98.276 20.8637C98.2143 21.09 98.0086 21.1929 97.7206 21.1929H92.3309L92.1663 20.6169H95.1903L96.2806 19.1151ZM84.1846 19.5677C84.5137 19.5677 84.596 19.5677 84.8223 19.1357C85.2749 18.3128 85.2749 18.3129 88.9571 9.30256L89.2657 9.36428C88.5663 12.0591 87.3731 16.9757 87.1468 18.2306C86.9823 18.9917 86.8589 19.794 86.8589 20.3494C86.9206 21.5631 87.8669 22.2009 87.8257 24.1346C87.7846 25.2454 86.9823 26.0066 85.8303 26.0066C85.316 26.0066 84.6988 25.7597 84.4931 24.9369C84.9251 22.7563 84.8429 20.6374 84.3491 20.2877C84.0611 20.082 83.6908 19.9791 83.2588 19.938V19.5677C83.2588 19.5677 83.9583 19.5677 84.1846 19.5677ZM82.8886 11.442C88.9777 11.8123 86.7766 16.4614 84.308 14.7951C84.0817 13.6226 83.3823 12.3677 82.7446 11.5448L82.8886 11.442ZM84.5754 6.68999C90.7263 7.26599 88.4428 11.8946 85.9743 10.1871C85.748 8.97342 85.0486 7.67742 84.4108 6.79285L84.5754 6.68999ZM89.2246 10.7014L92.0634 11.7506H98.3994L99.7366 10.2283L102.102 12.1208C101.958 12.3266 101.711 12.4911 101.238 12.5734V25.122C101.238 25.266 100.354 25.842 98.9754 25.842H98.5228V12.3266H91.8166V25.2866C91.8166 25.4717 91.0143 25.9654 89.6977 25.9654H89.2246V10.7014ZM94.7377 14.2191C94.7377 15.7826 94.4497 17.9837 91.7754 19.2797L91.5903 19.0534C92.6394 17.6134 92.6394 15.762 92.6394 14.2191V12.0591H94.7377V14.2191ZM97.6177 12.0591C97.6177 12.2854 97.6177 12.5323 97.6177 12.6969V16.1117C97.6177 16.338 97.6589 16.4203 97.8851 16.4203H98.2966C98.42 16.4203 98.5846 16.3997 98.6874 16.3997C98.7903 16.3997 98.996 16.3997 99.0783 16.3791C99.2017 16.3791 99.3869 16.338 99.5309 16.2969H99.716L99.7983 16.338C100.313 16.5437 100.477 16.77 100.477 17.1609C100.477 17.9426 99.8394 18.2511 98.0086 18.2511H97.1651C95.7251 18.2511 95.5606 17.8191 95.5606 16.5849V12.0591H97.6177ZM100.004 23.4146V23.9906H90.8086V23.4146H100.004ZM99.9629 6.27856C99.9629 6.27856 101.485 7.45114 102.411 8.27399C102.349 8.50028 102.123 8.60314 101.835 8.60314H88.7309L88.5663 8.02714H98.6257L99.9629 6.27856Z" fill="#BF9D7D"/>
<path d="M132.198 6.42256C138.987 6.52542 136.601 11.8123 133.803 9.98142C133.577 8.70599 132.815 7.38942 132.075 6.52542L132.198 6.42256ZM125.739 8.93228L129.154 10.0843H128.722V15.3094C128.722 18.7449 128.475 23.2294 124.052 26.0477L123.887 25.9243C125.657 22.818 125.739 18.8477 125.739 15.3094V8.93228ZM141.003 8.12999C141.003 8.12999 142.607 9.44656 143.533 10.3311C143.471 10.5574 143.245 10.6603 142.957 10.6603H127.138V10.0843H139.583L141.003 8.12999ZM140.139 12.2649C140.139 12.2649 141.846 13.6637 142.834 14.5894C142.772 14.8157 142.546 14.9186 142.237 14.9186H135.222V14.3426H138.637L140.139 12.2649ZM137.423 11.1951C137.382 11.4831 137.259 11.6889 136.683 11.7917V18.8066H133.7V10.9071L137.423 11.1951ZM139.46 23.2911V23.8671H130.47V23.2911H139.46ZM129.401 17.2431L132.383 18.354H138.123L139.46 16.8523L141.929 18.7243C141.805 18.9094 141.599 19.0329 141.126 19.1357V25.2454C141.126 25.3689 140.242 25.842 138.74 25.842H138.226V18.93H132.178V25.3894C132.178 25.554 131.334 26.0066 129.915 26.0066H129.401V17.2431Z" fill="#BF9D7D"/>
<path d="M0.728692 42.7221C0.576231 42.7221 0.5 42.6475 0.5 42.4983C0.5 42.4281 0.52541 42.3359 0.576231 42.2218C0.635521 42.0989 0.686342 41.9892 0.728692 41.8926C0.982795 41.3396 1.31736 40.6857 1.7324 39.9308C2.1559 39.1759 2.65987 38.3245 3.24431 37.3765C3.01562 37.3765 2.90127 37.3063 2.90127 37.1658C2.90127 37.0166 2.98174 36.942 3.14267 36.942L3.52382 36.9552C3.7864 36.5426 4.01085 36.1959 4.19719 35.915C4.38354 35.6341 4.53176 35.4147 4.64187 35.2567C4.82822 35.0021 5.02726 34.7476 5.23902 34.493C5.45924 34.2297 5.70064 33.9751 5.96321 33.7294C6.3613 33.6416 6.76787 33.5801 7.1829 33.545C7.60641 33.5011 8.03415 33.4792 8.46612 33.4792C9.22843 33.4792 9.76204 33.5187 10.067 33.5977C10.1771 33.624 10.2491 33.6547 10.283 33.6899C10.3253 33.725 10.3465 33.7732 10.3465 33.8347C10.3465 33.9839 10.283 34.0585 10.1559 34.0585C10.0543 34.0585 9.85945 34.0366 9.57147 33.9927C9.28348 33.94 8.84304 33.9137 8.25013 33.9137C7.96215 33.9137 7.64452 33.9312 7.29725 33.9664C6.94997 34.0015 6.56882 34.0541 6.15379 34.1244C5.79804 34.4052 5.08232 35.3488 4.00662 36.9552H7.11938C7.2549 36.9552 7.32266 37.0254 7.32266 37.1658C7.32266 37.3063 7.2549 37.3765 7.11938 37.3765H3.73981C2.51165 39.3251 1.60958 40.9315 1.03362 42.1955C3.32054 41.6688 5.04844 41.4055 6.21731 41.4055C7.03044 41.4055 7.437 41.6073 7.437 42.0111C7.437 42.1516 7.36924 42.2218 7.23372 42.2218C7.12361 42.2218 7.06432 42.1779 7.05585 42.0901C7.04738 41.9936 6.97115 41.9321 6.82716 41.9058C6.69164 41.8707 6.47565 41.8531 6.1792 41.8531C5.80651 41.8531 5.38724 41.8838 4.92139 41.9453C4.464 41.998 3.97274 42.0682 3.44759 42.156C2.70222 42.2701 2.09661 42.3929 1.63076 42.5246C1.1649 42.6563 0.864214 42.7221 0.728692 42.7221Z" fill="#BF9D7D"/>
<path d="M9.85574 42.5641C9.72022 42.5641 9.65246 42.5071 9.65246 42.393C9.65246 42.3491 9.6694 42.2964 9.70328 42.235C9.73716 42.1647 9.76681 42.1077 9.79222 42.0638L10.9357 39.6806C11.4269 38.6449 11.6726 38.0699 11.6726 37.9558C11.6726 37.8329 11.7319 37.7715 11.8504 37.7715C12.0114 37.7715 12.0918 37.8593 12.0918 38.0348C12.0918 38.0963 12.0537 38.2279 11.9775 38.4298C11.9013 38.6317 11.8039 38.8599 11.6853 39.1145C11.482 39.5709 11.3126 39.922 11.1771 40.1678C11.4312 39.8606 11.6895 39.5709 11.9521 39.2988C12.2147 39.0267 12.4815 38.7678 12.7525 38.522C13.5572 37.7934 14.1755 37.4292 14.6075 37.4292C14.9039 37.4292 15.0521 37.574 15.0521 37.8637C15.0521 38.127 14.8362 38.7195 14.4042 39.6411C13.9722 40.5716 13.7562 41.1597 13.7562 41.4055C13.7562 41.5196 13.7943 41.5766 13.8706 41.5766C13.896 41.5766 13.9341 41.5678 13.9849 41.5503C14.0442 41.524 14.1035 41.5108 14.1628 41.5108C14.3068 41.5108 14.3788 41.581 14.3788 41.7215C14.3788 41.897 14.1967 41.9848 13.8325 41.9848C13.663 41.9848 13.5402 41.9453 13.464 41.8663C13.3878 41.7785 13.3497 41.6644 13.3497 41.524C13.3497 41.1026 13.5572 40.4619 13.9722 39.6016C14.3872 38.7502 14.5948 38.2367 14.5948 38.0612C14.5948 37.9558 14.5566 37.9032 14.4804 37.9032C14.2941 37.9032 13.9934 38.0655 13.5783 38.3903C13.1294 38.7414 12.6805 39.1452 12.2316 39.6016C11.7827 40.0581 11.355 40.5804 10.9484 41.1685L10.059 42.4456C10.0082 42.5246 9.94044 42.5641 9.85574 42.5641Z" fill="#BF9D7D"/>
<path d="M18.7552 37.0473C18.6112 37.0473 18.5392 36.9727 18.5392 36.8235C18.5392 36.7796 18.5689 36.7006 18.6281 36.5865C18.6874 36.4636 18.7552 36.3407 18.8314 36.2178C18.9077 36.0949 18.9669 36.0116 19.0093 35.9677C19.1533 35.8009 19.2634 35.6956 19.3396 35.6517C19.4243 35.6078 19.5006 35.5858 19.5683 35.5858C19.7462 35.5858 19.8351 35.6692 19.8351 35.836C19.8351 35.8974 19.797 35.9721 19.7208 36.0598C19.653 36.1388 19.5726 36.2134 19.4794 36.2837C19.3439 36.3714 19.2592 36.4417 19.2253 36.4943L18.9458 36.9025C18.9373 36.9376 18.9161 36.9727 18.8822 37.0078C18.8568 37.0342 18.8145 37.0473 18.7552 37.0473ZM14.2703 46.6194C14.0416 46.6194 13.8552 46.536 13.7113 46.3692C13.5588 46.2113 13.4487 46.0138 13.3809 45.7768C13.3047 45.5485 13.2666 45.3291 13.2666 45.1184C13.2666 44.8639 13.292 44.6313 13.3428 44.4206C13.4106 44.1134 13.5207 43.9598 13.6731 43.9598C13.8087 43.9598 13.8764 44.0256 13.8764 44.1573C13.8764 44.1924 13.8595 44.2407 13.8256 44.3021C13.7917 44.3635 13.7663 44.4162 13.7494 44.4601C13.6986 44.6005 13.6731 44.7805 13.6731 44.9999C13.6731 45.272 13.724 45.531 13.8256 45.7768C13.9272 46.0313 14.0882 46.1586 14.3084 46.1586C14.4778 46.1586 14.6472 46.0884 14.8166 45.9479C14.986 45.8075 15.1512 45.6275 15.3121 45.4081C15.4646 45.1974 15.6086 44.9736 15.7441 44.7366C15.8711 44.4996 15.977 44.2802 16.0617 44.0783C16.1803 43.8062 16.2989 43.5121 16.4174 43.1961C16.536 42.8801 16.6419 42.5773 16.7351 42.2876C16.8367 41.998 16.9045 41.7653 16.9384 41.5898C17.0061 41.2387 17.0739 40.892 17.1416 40.5496C17.2179 40.1985 17.2941 39.8474 17.3703 39.4963C17.5143 38.8731 17.6583 38.4386 17.8023 38.1928C17.9463 37.947 18.0776 37.8242 18.1962 37.8242C18.2555 37.8242 18.3232 37.8505 18.3995 37.9032C18.4842 37.9558 18.5265 38.0173 18.5265 38.0875C18.5265 38.1226 18.4418 38.2894 18.2724 38.5878C18.1792 38.7546 18.1072 38.8863 18.0564 38.9828C18.0056 39.0794 17.9717 39.1452 17.9548 39.1803C17.9294 39.2418 17.8912 39.3734 17.8404 39.5753C17.7896 39.7772 17.7303 40.0186 17.6626 40.2995C17.6033 40.5716 17.5397 40.8525 17.472 41.1421C17.4042 41.4318 17.3407 41.6995 17.2814 41.9453C17.2306 42.1823 17.184 42.3666 17.1416 42.4983C17.0061 42.9547 16.8452 43.4024 16.6588 43.8413C16.4725 44.2802 16.2735 44.6795 16.0617 45.0394C15.4434 46.0928 14.8462 46.6194 14.2703 46.6194Z" fill="#BF9D7D"/>
<path d="M21.1909 42.1691C20.5048 42.1691 20.1618 41.7697 20.1618 40.971C20.1618 40.6023 20.2465 40.2161 20.4159 39.8123C20.5853 39.4085 20.8098 39.0355 21.0893 38.6931C21.3688 38.342 21.6779 38.0568 22.0167 37.8373C22.364 37.6179 22.7155 37.5082 23.0713 37.5082C23.3847 37.5082 23.6134 37.631 23.7573 37.8768C23.9013 38.1226 23.9733 38.3947 23.9733 38.6931C23.9733 39.0881 23.8971 39.4919 23.7446 39.9045C23.5922 40.3082 23.3847 40.6813 23.1221 41.0236C22.8595 41.366 22.5631 41.6425 22.2327 41.8531C21.9024 42.0638 21.5551 42.1691 21.1909 42.1691ZM21.1782 41.7478C21.229 41.7478 21.2587 41.7434 21.2671 41.7346C21.5975 41.6907 21.9024 41.5678 22.1819 41.366C22.4614 41.1641 22.7028 40.9139 22.9061 40.6155C23.1179 40.3082 23.2788 39.9791 23.3889 39.628C23.499 39.2769 23.5541 38.9301 23.5541 38.5878C23.5541 38.3859 23.499 38.2279 23.3889 38.1138C23.2788 37.9997 23.139 37.9427 22.9696 37.9427C22.724 37.9427 22.4614 38.048 22.1819 38.2587C21.9109 38.4693 21.6525 38.737 21.4069 39.0618C21.1697 39.3866 20.9749 39.7289 20.8225 40.0888C20.67 40.4399 20.5938 40.7559 20.5938 41.0368C20.5938 41.5108 20.7886 41.7478 21.1782 41.7478Z" fill="#BF9D7D"/>
<path d="M25.4853 46.5931C24.9687 46.5931 24.7103 46.2771 24.7103 45.6451C24.7103 45.1096 24.8204 44.5918 25.0407 44.0914C25.0745 44.0037 25.1296 43.9598 25.2058 43.9598C25.3583 43.9598 25.4345 44.03 25.4345 44.1704C25.4345 44.2055 25.4218 44.2494 25.3964 44.3021C25.3795 44.3635 25.3583 44.4294 25.3329 44.4996C25.2736 44.6664 25.227 44.8419 25.1931 45.0263C25.1592 45.2106 25.1423 45.4037 25.1423 45.6056C25.1423 45.8338 25.172 45.9874 25.2312 46.0664C25.2905 46.1454 25.3668 46.1849 25.4599 46.1849C25.6802 46.1849 25.9385 46.0796 26.2349 45.8689C26.5399 45.6583 26.8533 45.3247 27.1751 44.8683C27.4038 44.5435 27.641 44.1573 27.8866 43.7096C28.1322 43.2619 28.3948 42.7484 28.6743 42.1691C29.047 41.4055 29.3901 40.6286 29.7034 39.8386C29.4917 40.1195 29.2715 40.3916 29.0428 40.655C28.8141 40.9183 28.5685 41.1641 28.3059 41.3923C27.6029 42.0155 27.0184 42.3271 26.5526 42.3271C25.9935 42.3271 25.714 41.9936 25.714 41.3265C25.714 41.0895 25.7564 40.8042 25.8411 40.4706C25.9343 40.1371 26.0613 39.7553 26.2222 39.3251C26.2477 39.2549 26.2604 39.1979 26.2604 39.154C26.2604 39.1013 26.2731 39.0486 26.2985 38.996C26.434 38.6888 26.6585 38.3464 26.9718 37.969C27.0396 37.89 27.0989 37.8505 27.1497 37.8505C27.2768 37.8505 27.3403 37.947 27.3403 38.1402C26.5187 39.3954 26.1079 40.4575 26.1079 41.3265C26.1079 41.6951 26.2477 41.8795 26.5272 41.8795C26.8406 41.8795 27.2768 41.6556 27.8358 41.208C28.2339 40.892 28.6023 40.5365 28.9411 40.1415C29.2799 39.7377 29.5849 39.3208 29.8559 38.8906C30.0423 38.601 30.1905 38.3464 30.3006 38.127C30.4192 37.8988 30.4912 37.7452 30.5166 37.6662C30.5589 37.5345 30.6182 37.4687 30.6944 37.4687C30.8554 37.4687 30.9358 37.5389 30.9358 37.6793C30.9358 37.7495 30.902 37.8768 30.8342 38.0612C30.7749 38.2367 30.6987 38.4474 30.6055 38.6931C30.47 39.053 30.2752 39.5358 30.0211 40.1415C29.767 40.7471 29.4493 41.4669 29.0682 42.3008C28.5939 43.3366 28.128 44.1836 27.6706 44.8419C27.3318 45.3423 26.9591 45.7592 26.5526 46.0928C26.1545 46.4263 25.7987 46.5931 25.4853 46.5931Z" fill="#BF9D7D"/>
<path d="M31.8369 42.6826C31.6929 42.6826 31.6209 42.6124 31.6209 42.4719C31.6209 42.4632 31.6718 42.3535 31.7734 42.1428C31.875 41.9321 32.019 41.6205 32.2054 41.208L32.8533 39.7991C33.1159 39.2286 33.3022 38.7765 33.4124 38.443C33.5309 38.1094 33.5902 37.8944 33.5902 37.7978C33.5902 37.6574 33.658 37.5872 33.7935 37.5872C33.929 37.5872 33.9968 37.6574 33.9968 37.7978C33.9968 37.9119 33.9587 38.0919 33.8824 38.3377C33.8147 38.5746 33.7003 38.8819 33.5394 39.2593L32.8914 40.7866C34.6617 38.4693 35.9957 37.3107 36.8936 37.3107C37.063 37.3107 37.1943 37.3853 37.2874 37.5345C37.3806 37.6749 37.4272 37.8329 37.4272 38.0085C37.4272 38.4298 37.135 39.1628 36.5505 40.2073C36.9994 39.7333 37.4526 39.2593 37.91 38.7853C38.3758 38.3025 38.8417 37.8285 39.3075 37.3633C39.4261 37.2492 39.5235 37.1922 39.5998 37.1922C39.7014 37.1922 39.7861 37.2448 39.8539 37.3502C39.9216 37.4467 39.9555 37.552 39.9555 37.6662C39.9555 37.7539 39.9174 37.8637 39.8412 37.9953C39.731 38.1884 39.6294 38.421 39.5362 38.6931C39.4431 38.9565 39.3372 39.2549 39.2186 39.5885C39.0831 39.9659 38.9857 40.2951 38.9264 40.576C38.8671 40.8569 38.8374 41.0851 38.8374 41.2606C38.8374 41.4801 38.8883 41.6425 38.9899 41.7478C39.0915 41.8443 39.1932 41.8926 39.2948 41.8926C39.4727 41.8926 39.6675 41.8443 39.8793 41.7478C40.091 41.6512 40.2647 41.5547 40.4002 41.4581C40.6712 41.2738 40.955 41.0456 41.2514 40.7735C41.5479 40.4926 41.8316 40.2117 42.1027 39.9308C42.1365 39.8957 42.1874 39.8781 42.2551 39.8781C42.3822 39.8781 42.4457 39.9308 42.4457 40.0361C42.4457 40.1327 42.3864 40.2424 42.2678 40.3653C41.929 40.7164 41.6241 41.0192 41.3531 41.2738C41.082 41.5196 40.8237 41.7215 40.5781 41.8795C40.4171 41.976 40.2223 42.077 39.9936 42.1823C39.7649 42.2876 39.5193 42.3403 39.2567 42.3403C39.0111 42.3403 38.8036 42.2613 38.6342 42.1033C38.4732 41.9453 38.3928 41.6073 38.3928 41.0895C38.3928 40.8876 38.4266 40.6506 38.4944 40.3785C38.5622 40.0976 38.6638 39.786 38.7993 39.4436L39.4727 37.7847L37.6559 39.6806C37.4441 39.9001 37.2705 40.0844 37.135 40.2336C36.9994 40.3829 36.8893 40.5057 36.8046 40.6023C36.6437 40.7779 36.4997 40.949 36.3727 41.1158C36.2541 41.2826 36.1524 41.4274 36.0677 41.5503C36.0084 41.6468 35.9407 41.6951 35.8644 41.6951C35.7205 41.6951 35.6485 41.6337 35.6485 41.5108C35.6485 41.2387 35.8856 40.6111 36.3599 39.628C36.8343 38.6449 37.0714 38.0568 37.0714 37.8637C37.0714 37.7759 36.9783 37.732 36.7919 37.732C36.0381 37.732 34.6956 39.0091 32.7644 41.5635C32.6035 41.8005 32.3367 42.156 31.964 42.6299C31.9386 42.6651 31.8962 42.6826 31.8369 42.6826Z" fill="#BF9D7D"/>
<path d="M44.2271 42.4719C43.8714 42.4719 43.5918 42.3447 43.3886 42.0901C43.1853 41.8356 43.0836 41.524 43.0836 41.1553C43.0836 40.5233 43.2869 39.8737 43.6935 39.2066C43.8036 39.0223 43.9307 38.8424 44.0746 38.6668C44.2186 38.4825 44.3753 38.3069 44.5447 38.1402C44.7988 37.8856 45.0656 37.6749 45.3452 37.5082C45.6247 37.3414 45.8957 37.258 46.1583 37.258C46.5903 37.258 46.8062 37.4687 46.8062 37.89C46.8062 38.4166 46.5098 38.895 45.9169 39.3251C45.3663 39.7114 44.8242 39.9045 44.2906 39.9045C44.1975 39.9045 44.1128 39.9001 44.0365 39.8913C43.9688 39.8737 43.9052 39.8562 43.8459 39.8386C43.7612 40.0054 43.685 40.2205 43.6173 40.4838C43.5495 40.7471 43.5156 40.9754 43.5156 41.1685C43.5156 41.7478 43.7612 42.0375 44.2525 42.0375C44.6506 42.0375 45.0275 41.9672 45.3833 41.8268C45.739 41.6776 46.1625 41.4011 46.6538 40.9973C46.9587 40.7515 47.1874 40.554 47.3399 40.4048C47.4923 40.2556 47.6575 40.0976 47.8354 39.9308C47.8862 39.8957 47.9328 39.8781 47.9751 39.8781C48.0175 39.8781 48.0598 39.8913 48.1022 39.9176C48.1445 39.944 48.1657 39.9835 48.1657 40.0361C48.1657 40.1327 48.081 40.2687 47.9116 40.4443C47.7676 40.5847 47.6151 40.734 47.4542 40.892C47.2933 41.0412 47.0392 41.2518 46.6919 41.524C46.3192 41.8224 45.9127 42.055 45.4722 42.2218C45.0318 42.3886 44.6167 42.4719 44.2271 42.4719ZM44.2144 39.4831C44.4854 39.4831 44.7438 39.4393 44.9894 39.3515C45.235 39.2637 45.468 39.1364 45.6882 38.9696C46.1795 38.5922 46.4251 38.2367 46.4251 37.9032C46.4251 37.7539 46.3362 37.6793 46.1583 37.6793C45.8195 37.6793 45.4256 37.8944 44.9767 38.3245C44.7565 38.5351 44.5744 38.7283 44.4304 38.9038C44.2949 39.0706 44.1678 39.2549 44.0492 39.4568C44.1001 39.4744 44.1551 39.4831 44.2144 39.4831Z" fill="#BF9D7D"/>
<path d="M48.2491 42.5641C48.1136 42.5641 48.0458 42.5071 48.0458 42.393C48.0458 42.3491 48.0627 42.2964 48.0966 42.235C48.1305 42.1647 48.1601 42.1077 48.1855 42.0638L49.329 39.6806C49.8203 38.6449 50.0659 38.0699 50.0659 37.9558C50.0659 37.8329 50.1252 37.7715 50.2438 37.7715C50.4047 37.7715 50.4852 37.8593 50.4852 38.0348C50.4852 38.0963 50.4471 38.2279 50.3708 38.4298C50.2946 38.6317 50.1972 38.8599 50.0786 39.1145C49.8753 39.5709 49.7059 39.922 49.5704 40.1678C49.8245 39.8606 50.0828 39.5709 50.3454 39.2988C50.608 39.0267 50.8748 38.7678 51.1458 38.522C51.9505 37.7934 52.5688 37.4292 53.0008 37.4292C53.2972 37.4292 53.4455 37.574 53.4455 37.8637C53.4455 38.127 53.2295 38.7195 52.7975 39.6411C52.3655 40.5716 52.1495 41.1597 52.1495 41.4055C52.1495 41.5196 52.1877 41.5766 52.2639 41.5766C52.2893 41.5766 52.3274 41.5678 52.3782 41.5503C52.4375 41.524 52.4968 41.5108 52.5561 41.5108C52.7001 41.5108 52.7721 41.581 52.7721 41.7215C52.7721 41.897 52.59 41.9848 52.2258 41.9848C52.0564 41.9848 51.9336 41.9453 51.8573 41.8663C51.7811 41.7785 51.743 41.6644 51.743 41.524C51.743 41.1026 51.9505 40.4619 52.3655 39.6016C52.7806 38.7502 52.9881 38.2367 52.9881 38.0612C52.9881 37.9558 52.95 37.9032 52.8737 37.9032C52.6874 37.9032 52.3867 38.0655 51.9717 38.3903C51.5228 38.7414 51.0738 39.1452 50.6249 39.6016C50.176 40.0581 49.7483 40.5804 49.3417 41.1685L48.4524 42.4456C48.4015 42.5246 48.3338 42.5641 48.2491 42.5641Z" fill="#BF9D7D"/>
<path d="M55.0268 43.1434C54.8658 43.1434 54.7854 43.0118 54.7854 42.7484C54.7854 42.3622 54.9929 41.6863 55.4079 40.7208C55.8314 39.7553 56.4582 38.4913 57.2883 36.9288C56.9664 36.9288 56.6615 36.9727 56.3735 37.0605C56.094 37.1395 55.9458 37.2404 55.9288 37.3633C55.9204 37.3984 55.8992 37.4335 55.8653 37.4687C55.8399 37.495 55.7975 37.5082 55.7383 37.5082C55.6027 37.5082 55.535 37.4379 55.535 37.2975C55.535 37.0693 55.7086 36.8806 56.0559 36.7313C56.4032 36.5821 56.8902 36.5075 57.517 36.5075L58.3936 35.0065C58.4529 34.91 58.5164 34.8046 58.5842 34.6905C58.652 34.5676 58.7282 34.436 58.8129 34.2955C58.8976 34.1726 58.995 34.1112 59.1051 34.1112C59.1729 34.1112 59.2237 34.1331 59.2576 34.177C59.2915 34.2121 59.3084 34.2516 59.3084 34.2955C59.3084 34.4272 59.1221 34.7783 58.7494 35.3488C58.2835 36.0598 58.0336 36.4461 57.9998 36.5075C58.1268 36.5075 58.3174 36.5207 58.5715 36.547C58.8256 36.5646 59.1263 36.5953 59.4736 36.6392C59.6006 36.6479 59.6641 36.7138 59.6641 36.8367C59.6641 36.9771 59.5879 37.0473 59.4354 37.0473C59.3762 37.0473 59.2576 37.0386 59.0797 37.021C58.9018 36.9947 58.7113 36.9727 58.508 36.9552C58.3047 36.9376 58.1311 36.9332 57.9871 36.942L57.7965 36.9552C56.0771 40.0888 55.2216 42.0375 55.23 42.8011L55.2428 42.9064V42.9328C55.2428 43.0732 55.1708 43.1434 55.0268 43.1434Z" fill="#BF9D7D"/>
<path d="M63.5989 42.8011C63.5396 42.8011 63.4718 42.7704 63.3956 42.7089C63.3194 42.6475 63.2812 42.5817 63.2812 42.5114C63.2812 42.4324 63.3659 42.2306 63.5353 41.9058C63.7047 41.581 63.9758 41.0938 64.3485 40.4443C64.7211 39.7947 65.2082 38.9521 65.8096 37.9163L67.4739 35.0328C67.5671 34.8573 67.6814 34.651 67.817 34.414C67.9525 34.177 68.1177 33.8961 68.3125 33.5714C68.3633 33.4924 68.4183 33.4529 68.4776 33.4529C68.5369 33.4529 68.5962 33.4836 68.6555 33.545C68.7148 33.5977 68.7444 33.6547 68.7444 33.7162C68.7444 33.7513 68.5327 34.1419 68.1092 34.888C67.6857 35.6253 67.0462 36.7269 66.1907 38.1928C65.8688 38.7458 65.5173 39.3559 65.1362 40.023C64.7635 40.6901 64.3654 41.4142 63.9419 42.1955C66.3982 41.5108 68.2871 41.1685 69.6084 41.1685C70.0065 41.1685 70.3368 41.2387 70.5994 41.3791C70.8704 41.5108 71.006 41.6425 71.006 41.7741C71.006 41.9233 70.934 41.998 70.79 41.998C70.6714 41.998 70.6121 41.9321 70.6121 41.8005V41.761C70.5274 41.7171 70.3834 41.682 70.1801 41.6556C69.9768 41.6293 69.7439 41.6161 69.4813 41.6161C69.1595 41.6161 68.7953 41.6468 68.3887 41.7083C67.9821 41.761 67.5671 41.8312 67.1436 41.919C66.7286 41.998 66.3389 42.0813 65.9747 42.1691C65.619 42.2481 65.2802 42.3315 64.9583 42.4193C64.6449 42.5158 64.3527 42.5992 64.0817 42.6694C63.9207 42.7046 63.8021 42.7353 63.7259 42.7616C63.6581 42.7879 63.6158 42.8011 63.5989 42.8011Z" fill="#BF9D7D"/>
<path d="M76.7629 42.6826C76.3478 42.6826 76.1403 42.371 76.1403 41.7478C76.1403 41.4142 76.2166 41.0105 76.369 40.5365C75.3441 41.7741 74.5395 42.393 73.955 42.393C73.4722 42.393 73.2308 42.0901 73.2308 41.4845C73.2308 41.2562 73.2647 40.9841 73.3325 40.6681C73.4087 40.3434 73.5061 40.0098 73.6247 39.6675C73.7518 39.3251 73.8873 39.0048 74.0313 38.7063C74.1753 38.4079 74.3192 38.1665 74.4632 37.9822C74.5141 37.9207 74.5776 37.89 74.6538 37.89C74.6962 37.89 74.7385 37.9075 74.7809 37.9427C74.8232 37.969 74.8444 38.0129 74.8444 38.0743C74.8444 38.127 74.8148 38.2016 74.7555 38.2982C74.3743 38.9477 74.1033 39.5139 73.9423 39.9966C73.739 40.5496 73.6374 41.028 73.6374 41.4318C73.6374 41.8092 73.7306 41.998 73.9169 41.998C74.0355 41.998 74.1922 41.9365 74.387 41.8136C74.5818 41.6907 74.7809 41.5415 74.9842 41.366C75.1959 41.1816 75.378 41.0105 75.5305 40.8525C75.954 40.3872 76.3351 39.8913 76.6739 39.3646C76.8264 39.1189 76.9619 38.8819 77.0805 38.6536C77.2075 38.4166 77.3219 38.1709 77.4235 37.9163C77.4659 37.8198 77.4998 37.7495 77.5252 37.7057C77.5591 37.653 77.6056 37.6267 77.6649 37.6267C77.8428 37.6267 77.9317 37.6969 77.9317 37.8373C77.9317 37.9251 77.9021 37.9865 77.8428 38.0217C76.9789 39.8386 76.5469 41.0895 76.5469 41.7741C76.5469 41.9585 76.5638 42.0901 76.5977 42.1691C76.6316 42.2393 76.6909 42.2745 76.7756 42.2745C76.8942 42.2745 77.0763 42.1955 77.3219 42.0375C77.576 41.8795 77.8725 41.6381 78.2113 41.3133L79.5453 40.0493C79.6131 39.9791 79.6766 39.944 79.7359 39.944C79.8714 39.944 79.9392 40.0098 79.9392 40.1415C79.9392 40.2556 79.6723 40.5628 79.1387 41.0631C78.91 41.2826 78.7068 41.4669 78.5289 41.6161C78.351 41.7653 78.1858 41.897 78.0334 42.0111C77.7454 42.2218 77.4913 42.3842 77.2711 42.4983C77.0509 42.6212 76.8815 42.6826 76.7629 42.6826Z" fill="#BF9D7D"/>
<path d="M79.6565 42.5641C79.5125 42.5641 79.4405 42.4939 79.4405 42.3535C79.4405 42.2832 79.5421 42.134 79.7454 41.9058C79.9572 41.6688 80.279 41.3616 80.711 40.9841L82.2356 39.6411C82.1763 39.4041 82.1213 39.1935 82.0704 39.0091C82.0281 38.8248 81.9857 38.6712 81.9434 38.5483C81.7825 38.0392 81.6385 37.7188 81.5114 37.5872C81.4606 37.5345 81.4352 37.4774 81.4352 37.416C81.4352 37.2843 81.4987 37.2185 81.6258 37.2185C81.8206 37.2185 82.0239 37.5257 82.2356 38.1402C82.3034 38.342 82.3669 38.5439 82.4262 38.7458C82.4855 38.9477 82.5448 39.1496 82.6041 39.3515C83.5273 38.5615 84.1287 38.0173 84.4082 37.7188C84.4759 37.6486 84.5225 37.5959 84.5479 37.5608C84.5734 37.5257 84.5903 37.495 84.5988 37.4687C84.6411 37.3721 84.7131 37.3238 84.8147 37.3238C84.9503 37.3238 85.018 37.3897 85.018 37.5213C85.018 37.7847 84.2557 38.5351 82.7311 39.7728C82.8327 40.1415 82.9386 40.4882 83.0487 40.813C83.1588 41.1377 83.2859 41.4055 83.4299 41.6161C83.5824 41.818 83.7518 41.919 83.9381 41.919C84.116 41.919 84.3023 41.8707 84.4971 41.7741C84.7004 41.6776 84.9037 41.5591 85.107 41.4186C85.3102 41.2694 85.4924 41.129 85.6533 40.9973C85.9582 40.7515 86.1869 40.554 86.3394 40.4048C86.4918 40.2556 86.657 40.0976 86.8349 39.9308C86.8857 39.8957 86.9323 39.8781 86.9746 39.8781C87.017 39.8781 87.0593 39.8913 87.1017 39.9176C87.144 39.944 87.1652 39.9835 87.1652 40.0361C87.1652 40.1327 87.0805 40.2687 86.9111 40.4443C86.7671 40.5847 86.6146 40.734 86.4537 40.892C86.2928 41.0412 86.0387 41.2518 85.6914 41.524C85.5389 41.6468 85.3568 41.7697 85.1451 41.8926C84.9418 42.0155 84.7343 42.1165 84.5225 42.1955C84.3192 42.2745 84.1329 42.314 83.9635 42.314C83.6755 42.314 83.4299 42.2086 83.2266 41.998C83.0318 41.7785 82.8666 41.4976 82.7311 41.1553C82.5956 40.813 82.4728 40.4531 82.3627 40.0756L81.054 41.2343C80.7915 41.4625 80.5585 41.682 80.3552 41.8926C80.152 42.1033 79.9741 42.3008 79.8216 42.4851C79.7878 42.5378 79.7327 42.5641 79.6565 42.5641Z" fill="#BF9D7D"/>
<path d="M91.215 42.6826C90.7999 42.6826 90.5924 42.371 90.5924 41.7478C90.5924 41.4142 90.6686 41.0105 90.8211 40.5365C89.7962 41.7741 88.9916 42.393 88.4071 42.393C87.9243 42.393 87.6829 42.0901 87.6829 41.4845C87.6829 41.2562 87.7168 40.9841 87.7846 40.6681C87.8608 40.3434 87.9582 40.0098 88.0768 39.6675C88.2038 39.3251 88.3394 39.0048 88.4834 38.7063C88.6273 38.4079 88.7713 38.1665 88.9153 37.9822C88.9662 37.9207 89.0297 37.89 89.1059 37.89C89.1483 37.89 89.1906 37.9075 89.233 37.9427C89.2753 37.969 89.2965 38.0129 89.2965 38.0743C89.2965 38.127 89.2668 38.2016 89.2075 38.2982C88.8264 38.9477 88.5554 39.5139 88.3944 39.9966C88.1911 40.5496 88.0895 41.028 88.0895 41.4318C88.0895 41.8092 88.1827 41.998 88.369 41.998C88.4876 41.998 88.6443 41.9365 88.8391 41.8136C89.0339 41.6907 89.233 41.5415 89.4362 41.366C89.648 41.1816 89.8301 41.0105 89.9826 40.8525C90.4061 40.3872 90.7872 39.8913 91.126 39.3646C91.2785 39.1189 91.414 38.8819 91.5326 38.6536C91.6596 38.4166 91.774 38.1709 91.8756 37.9163C91.918 37.8198 91.9519 37.7495 91.9773 37.7057C92.0111 37.653 92.0577 37.6267 92.117 37.6267C92.2949 37.6267 92.3838 37.6969 92.3838 37.8373C92.3838 37.9251 92.3542 37.9865 92.2949 38.0217C91.431 39.8386 90.999 41.0895 90.999 41.7741C90.999 41.9585 91.0159 42.0901 91.0498 42.1691C91.0837 42.2393 91.143 42.2745 91.2277 42.2745C91.3462 42.2745 91.5284 42.1955 91.774 42.0375C92.0281 41.8795 92.3245 41.6381 92.6633 41.3133L93.9974 40.0493C94.0651 39.9791 94.1287 39.944 94.188 39.944C94.3235 39.944 94.3913 40.0098 94.3913 40.1415C94.3913 40.2556 94.1244 40.5628 93.5908 41.0631C93.3621 41.2826 93.1589 41.4669 92.981 41.6161C92.8031 41.7653 92.6379 41.897 92.4855 42.0111C92.1975 42.2218 91.9434 42.3842 91.7232 42.4983C91.5029 42.6212 91.3335 42.6826 91.215 42.6826Z" fill="#BF9D7D"/>
<path d="M94.4516 42.5641C94.3161 42.5641 94.2483 42.5071 94.2483 42.393C94.2483 42.3403 94.261 42.2876 94.2864 42.235C94.3203 42.1823 94.3457 42.1384 94.3626 42.1033L95.5188 39.6806C96.0101 38.6449 96.2557 38.0699 96.2557 37.9558C96.2557 37.8329 96.315 37.7715 96.4336 37.7715C96.5945 37.7715 96.675 37.8549 96.675 38.0217C96.675 38.1094 96.6369 38.2499 96.5606 38.443C96.4844 38.6361 96.387 38.8599 96.2684 39.1145C96.0651 39.5709 95.8957 39.922 95.7602 40.1678C96.0143 39.8606 96.2727 39.5709 96.5352 39.2988C96.7978 39.0267 97.0646 38.7678 97.3357 38.522C98.1403 37.7934 98.7586 37.4292 99.1906 37.4292C99.4871 37.4292 99.6353 37.574 99.6353 37.8637C99.6353 38.1445 99.5463 38.285 99.3685 38.285C99.2838 38.285 99.2202 38.2104 99.1779 38.0612C99.1525 37.9558 99.0932 37.9032 99 37.9032C98.856 37.9032 98.5765 38.0655 98.1615 38.3903C97.7041 38.7414 97.2425 39.1584 96.7766 39.6411C96.3192 40.1239 95.8322 40.7384 95.3155 41.4845L94.6803 42.4061C94.6464 42.45 94.6125 42.4851 94.5786 42.5114C94.5532 42.5466 94.5109 42.5641 94.4516 42.5641Z" fill="#BF9D7D"/>
<path d="M100.071 46.5931C99.5543 46.5931 99.2959 46.2771 99.2959 45.6451C99.2959 45.1096 99.406 44.5918 99.6263 44.0914C99.6601 44.0037 99.7152 43.9598 99.7914 43.9598C99.9439 43.9598 100.02 44.03 100.02 44.1704C100.02 44.2055 100.007 44.2494 99.982 44.3021C99.9651 44.3635 99.9439 44.4294 99.9185 44.4996C99.8592 44.6664 99.8126 44.8419 99.7787 45.0263C99.7448 45.2106 99.7279 45.4037 99.7279 45.6056C99.7279 45.8338 99.7576 45.9874 99.8168 46.0664C99.8761 46.1454 99.9524 46.1849 100.046 46.1849C100.266 46.1849 100.524 46.0796 100.821 45.8689C101.125 45.6583 101.439 45.3247 101.761 44.8683C101.989 44.5435 102.227 44.1573 102.472 43.7096C102.718 43.2619 102.98 42.7484 103.26 42.1691C103.633 41.4055 103.976 40.6286 104.289 39.8386C104.077 40.1195 103.857 40.3916 103.628 40.655C103.4 40.9183 103.154 41.1641 102.891 41.3923C102.188 42.0155 101.604 42.3271 101.138 42.3271C100.579 42.3271 100.3 41.9936 100.3 41.3265C100.3 41.0895 100.342 40.8042 100.427 40.4706C100.52 40.1371 100.647 39.7553 100.808 39.3251C100.833 39.2549 100.846 39.1979 100.846 39.154C100.846 39.1013 100.859 39.0486 100.884 38.996C101.02 38.6888 101.244 38.3464 101.557 37.969C101.625 37.89 101.684 37.8505 101.735 37.8505C101.862 37.8505 101.926 37.947 101.926 38.1402C101.104 39.3954 100.693 40.4575 100.693 41.3265C100.693 41.6951 100.833 41.8795 101.113 41.8795C101.426 41.8795 101.862 41.6556 102.421 41.208C102.819 40.892 103.188 40.5365 103.527 40.1415C103.866 39.7377 104.17 39.3208 104.442 38.8906C104.628 38.601 104.776 38.3464 104.886 38.127C105.005 37.8988 105.077 37.7452 105.102 37.6662C105.145 37.5345 105.204 37.4687 105.28 37.4687C105.441 37.4687 105.521 37.5389 105.521 37.6793C105.521 37.7495 105.488 37.8768 105.42 38.0612C105.361 38.2367 105.284 38.4474 105.191 38.6931C105.056 39.053 104.861 39.5358 104.607 40.1415C104.353 40.7471 104.035 41.4669 103.654 42.3008C103.179 43.3366 102.714 44.1836 102.256 44.8419C101.917 45.3423 101.545 45.7592 101.138 46.0928C100.74 46.4263 100.384 46.5931 100.071 46.5931Z" fill="#BF9D7D"/>
<path d="M111.685 43.5253C111.524 43.5253 111.443 43.4507 111.443 43.3014C111.443 42.2657 112.028 40.6506 113.197 38.4562C113.281 38.2982 113.413 38.0655 113.59 37.7583C113.303 37.7934 113.061 37.8593 112.866 37.9558C112.68 38.0436 112.557 38.0875 112.498 38.0875C112.345 38.0875 112.269 38.0129 112.269 37.8637C112.269 37.6354 112.794 37.4379 113.845 37.2712C113.989 37.0166 114.171 36.7006 114.391 36.3232C114.62 35.9457 114.891 35.5025 115.204 34.9933C115.433 34.6159 115.628 34.2867 115.788 34.0059C115.949 33.7162 116.081 33.4529 116.182 33.2159C116.216 33.1281 116.271 33.0842 116.348 33.0842C116.508 33.0842 116.589 33.172 116.589 33.3475C116.589 33.409 116.487 33.6152 116.284 33.9664C116.089 34.3087 115.78 34.8353 115.357 35.5463L114.353 37.2185C114.675 37.1834 115.013 37.157 115.369 37.1395C115.725 37.1219 116.089 37.1132 116.462 37.1132C117.207 37.1132 118.575 37.179 120.566 37.3107C120.735 36.9332 120.913 36.5646 121.099 36.2047C121.294 35.836 121.497 35.4717 121.709 35.1118C122.014 34.5764 122.281 34.1595 122.51 33.861C122.738 33.5538 122.908 33.3563 123.018 33.2685C123.128 33.1807 123.217 33.1369 123.285 33.1369C123.412 33.1369 123.475 33.2071 123.475 33.3475C123.475 33.4177 123.437 33.4792 123.361 33.5319C123.208 33.646 123.022 33.8522 122.802 34.1507C122.581 34.4491 122.336 34.8397 122.065 35.3225C121.658 36.0335 121.311 36.7094 121.023 37.3502C121.319 37.3502 121.468 37.4248 121.468 37.574C121.468 37.6354 121.447 37.6881 121.404 37.732C121.362 37.7759 121.298 37.7934 121.214 37.7847L120.832 37.7583C119.977 39.7333 119.549 41.0851 119.549 41.8136V42.1033C119.549 42.2086 119.477 42.2613 119.333 42.2613C119.198 42.2613 119.13 42.1077 119.13 41.8005C119.13 41.028 119.545 39.6675 120.375 37.7188C119.342 37.6574 118.49 37.6135 117.821 37.5872C117.161 37.5608 116.682 37.5477 116.386 37.5477C115.556 37.5477 114.797 37.5872 114.111 37.6662L113.565 38.6536C113.15 39.4173 112.824 40.102 112.587 40.7076C112.35 41.3045 112.189 41.7522 112.104 42.0506C112.019 42.393 111.964 42.6563 111.939 42.8406C111.913 43.0249 111.892 43.1961 111.875 43.3541C111.867 43.4682 111.803 43.5253 111.685 43.5253Z" fill="#BF9D7D"/>
<path d="M124.755 42.1691C124.069 42.1691 123.726 41.7697 123.726 40.971C123.726 40.6023 123.811 40.2161 123.98 39.8123C124.15 39.4085 124.374 39.0355 124.653 38.6931C124.933 38.342 125.242 38.0568 125.581 37.8373C125.928 37.6179 126.28 37.5082 126.635 37.5082C126.949 37.5082 127.178 37.631 127.322 37.8768C127.466 38.1226 127.538 38.3947 127.538 38.6931C127.538 39.0881 127.461 39.4919 127.309 39.9045C127.156 40.3082 126.949 40.6813 126.686 41.0236C126.424 41.366 126.127 41.6425 125.797 41.8531C125.467 42.0638 125.119 42.1691 124.755 42.1691ZM124.742 41.7478C124.793 41.7478 124.823 41.7434 124.831 41.7346C125.162 41.6907 125.467 41.5678 125.746 41.366C126.026 41.1641 126.267 40.9139 126.47 40.6155C126.682 40.3082 126.843 39.9791 126.953 39.628C127.063 39.2769 127.118 38.9301 127.118 38.5878C127.118 38.3859 127.063 38.2279 126.953 38.1138C126.843 37.9997 126.703 37.9427 126.534 37.9427C126.288 37.9427 126.026 38.048 125.746 38.2587C125.475 38.4693 125.217 38.737 124.971 39.0618C124.734 39.3866 124.539 39.7289 124.387 40.0888C124.234 40.4399 124.158 40.7559 124.158 41.0368C124.158 41.5108 124.353 41.7478 124.742 41.7478Z" fill="#BF9D7D"/>
<path d="M129.24 43.1434C129.079 43.1434 128.999 43.0118 128.999 42.7484C128.999 42.3622 129.206 41.6863 129.621 40.7208C130.045 39.7553 130.672 38.4913 131.502 36.9288C131.18 36.9288 130.875 36.9727 130.587 37.0605C130.307 37.1395 130.159 37.2404 130.142 37.3633C130.134 37.3984 130.113 37.4335 130.079 37.4687C130.053 37.495 130.011 37.5082 129.952 37.5082C129.816 37.5082 129.748 37.4379 129.748 37.2975C129.748 37.0693 129.922 36.8806 130.269 36.7313C130.617 36.5821 131.104 36.5075 131.73 36.5075L132.607 35.0065C132.666 34.91 132.73 34.8046 132.798 34.6905C132.865 34.5676 132.942 34.436 133.026 34.2955C133.111 34.1726 133.208 34.1112 133.318 34.1112C133.386 34.1112 133.437 34.1331 133.471 34.177C133.505 34.2121 133.522 34.2516 133.522 34.2955C133.522 34.4272 133.335 34.7783 132.963 35.3488C132.497 36.0598 132.247 36.4461 132.213 36.5075C132.34 36.5075 132.531 36.5207 132.785 36.547C133.039 36.5646 133.34 36.5953 133.687 36.6392C133.814 36.6479 133.878 36.7138 133.878 36.8367C133.878 36.9771 133.801 37.0473 133.649 37.0473C133.59 37.0473 133.471 37.0386 133.293 37.021C133.115 36.9947 132.925 36.9727 132.721 36.9552C132.518 36.9376 132.344 36.9332 132.2 36.942L132.01 36.9552C130.29 40.0888 129.435 42.0375 129.443 42.8011L129.456 42.9064V42.9328C129.456 43.0732 129.384 43.1434 129.24 43.1434Z" fill="#BF9D7D"/>
<path d="M134.672 42.4719C134.316 42.4719 134.037 42.3447 133.833 42.0901C133.63 41.8356 133.528 41.524 133.528 41.1553C133.528 40.5233 133.732 39.8737 134.138 39.2066C134.248 39.0223 134.375 38.8424 134.519 38.6668C134.663 38.4825 134.82 38.3069 134.989 38.1402C135.244 37.8856 135.51 37.6749 135.79 37.5082C136.069 37.3414 136.34 37.258 136.603 37.258C137.035 37.258 137.251 37.4687 137.251 37.89C137.251 38.4166 136.954 38.895 136.362 39.3251C135.811 39.7114 135.269 39.9045 134.735 39.9045C134.642 39.9045 134.557 39.9001 134.481 39.8913C134.413 39.8737 134.35 39.8562 134.291 39.8386C134.206 40.0054 134.13 40.2205 134.062 40.4838C133.994 40.7471 133.96 40.9754 133.96 41.1685C133.96 41.7478 134.206 42.0375 134.697 42.0375C135.095 42.0375 135.472 41.9672 135.828 41.8268C136.184 41.6776 136.607 41.4011 137.098 40.9973C137.403 40.7515 137.632 40.554 137.785 40.4048C137.937 40.2556 138.102 40.0976 138.28 39.9308C138.331 39.8957 138.377 39.8781 138.42 39.8781C138.462 39.8781 138.505 39.8913 138.547 39.9176C138.589 39.944 138.61 39.9835 138.61 40.0361C138.61 40.1327 138.526 40.2687 138.356 40.4443C138.212 40.5847 138.06 40.734 137.899 40.892C137.738 41.0412 137.484 41.2518 137.137 41.524C136.764 41.8224 136.357 42.055 135.917 42.2218C135.476 42.3886 135.061 42.4719 134.672 42.4719ZM134.659 39.4831C134.93 39.4831 135.188 39.4393 135.434 39.3515C135.68 39.2637 135.913 39.1364 136.133 38.9696C136.624 38.5922 136.87 38.2367 136.87 37.9032C136.87 37.7539 136.781 37.6793 136.603 37.6793C136.264 37.6793 135.87 37.8944 135.421 38.3245C135.201 38.5351 135.019 38.7283 134.875 38.9038C134.74 39.0706 134.612 39.2549 134.494 39.4568C134.545 39.4744 134.6 39.4831 134.659 39.4831Z" fill="#BF9D7D"/>
<path d="M140.523 42.5904C140.134 42.5904 139.833 42.4676 139.621 42.2218C139.418 41.9672 139.316 41.6337 139.316 41.2211C139.316 40.9227 139.367 40.5628 139.469 40.1415C139.647 39.4305 139.947 38.6054 140.371 37.6662C140.701 36.9552 141.057 36.2573 141.438 35.5727C141.819 34.8792 142.238 34.199 142.696 33.5319C143.424 32.461 143.933 31.9255 144.22 31.9255C144.407 31.9255 144.5 31.9782 144.5 32.0835C144.5 32.2328 144.263 32.6058 143.789 33.2027L142.899 34.3219C142.128 35.2874 141.497 36.2749 141.006 37.2843C140.523 38.2938 140.146 39.3032 139.875 40.3126C139.799 40.6023 139.761 40.8744 139.761 41.129C139.761 41.7961 140.024 42.1296 140.549 42.1296C140.735 42.1296 140.926 42.0726 141.12 41.9585C141.315 41.8531 141.421 41.8005 141.438 41.8005C141.54 41.8005 141.591 41.8751 141.591 42.0243C141.591 42.156 141.544 42.2569 141.451 42.3271C141.163 42.5027 140.854 42.5904 140.523 42.5904Z" fill="#BF9D7D"/>
</svg>
